<svg xmlns="http://www.w3.org/2000/svg" width="1024" height="1024" viewBox="0 0 1024 1024" version="1.1"><path d="M 524.500 163.630 C 478.518 167.442, 435.008 179.337, 402.077 197.100 C 356.090 221.905, 319.076 264.866, 303.989 310.946 C 296.839 332.784, 294.021 351.912, 294.008 378.699 C 293.990 417.318, 301.089 444.913, 317.178 468.762 C 324.853 480.139, 336.417 493.371, 346.374 502.171 C 369.345 522.471, 406.797 542.126, 446 554.453 C 477.583 564.385, 526.601 580.673, 535.261 584.114 C 558.534 593.362, 578.169 605.003, 589.118 616.044 C 600.065 627.083, 605 639.810, 605 657 C 605 667.670, 603.214 676, 599.437 682.938 C 587.522 704.829, 564.008 718.468, 527.650 724.575 C 513.571 726.940, 482.106 726.127, 470 723.084 C 448.111 717.584, 427.934 708.835, 411.816 697.853 C 402.932 691.801, 385.750 675.863, 379.259 667.654 L 376.218 663.808 324.125 721.016 L 272.032 778.224 277.091 782.772 C 329.233 829.652, 390.839 854.972, 467.395 860.987 C 518.849 865.030, 579.155 856.499, 621 839.258 C 687.486 811.864, 732.045 760.844, 746.392 695.683 C 750.538 676.854, 751.479 666.917, 751.429 642.500 C 751.331 594.779, 742.704 565.764, 720.051 536.967 C 702.376 514.499, 685.401 500.901, 656 485.658 C 634.092 474.299, 622.495 469.960, 578 456.474 C 527.943 441.302, 510.108 435.123, 494.040 427.386 C 463.906 412.876, 452.063 401.164, 447.386 381.250 C 445.212 371.990, 445.921 355.703, 448.855 347.539 C 458.343 321.134, 489.228 303.085, 531.974 298.962 C 563.362 295.935, 603.737 305.697, 628.811 322.377 C 632.490 324.825, 638.844 330.217, 642.932 334.360 C 647.020 338.503, 650.730 341.667, 651.177 341.391 C 651.624 341.114, 673.215 317.626, 699.156 289.194 C 725.098 260.762, 747.389 236.336, 748.692 234.913 L 751.061 232.326 741.281 224.484 C 721.182 208.368, 698.302 194.894, 675.761 185.898 C 653.894 177.171, 619.571 168.913, 591 165.506 C 578.064 163.963, 535.101 162.751, 524.500 163.630" stroke="none" fill="#fbfbfb" fill-rule="evenodd"/><path d="M 473 1.025 C 429.078 5.006, 396.261 11.488, 355.500 24.232 C 318.735 35.727, 273.301 56.946, 238.500 78.872 C 167.739 123.457, 104.984 189.456, 65.682 260.624 C 32.909 319.967, 12.926 379.885, 4.022 445.500 C -1.645 487.256, -1.252 541.892, 5.025 585.325 C 21.759 701.091, 78.458 808.963, 164 887.780 C 238.029 955.990, 328.699 1000.505, 428 1017.393 C 480.319 1026.291, 543.681 1026.291, 596 1017.393 C 645.102 1009.042, 690.375 994.560, 734.500 973.087 C 789.618 946.266, 831.864 916.275, 874.016 874.045 C 915.064 832.919, 944.743 791.628, 970.892 739.261 C 999.730 681.510, 1018.849 612.199, 1022.626 551.717 C 1022.996 545.786, 1023.682 540.697, 1024.149 540.408 C 1024.617 540.119, 1025 526.832, 1025 510.882 C 1025 494.932, 1024.615 482.120, 1024.145 482.410 C 1023.675 482.701, 1022.989 478.115, 1022.621 472.219 C 1020.823 443.403, 1014.222 405.894, 1005.425 374.500 C 991.050 323.197, 967.316 271.434, 938.410 228.342 C 908.069 183.111, 873.968 145.826, 832.500 112.544 C 765.120 58.465, 684.333 21.971, 599 7.064 C 571.502 2.261, 553.014 0.772, 517 0.462 C 498.025 0.298, 478.225 0.552, 473 1.025 M 524.500 163.630 C 478.518 167.442, 435.008 179.337, 402.077 197.100 C 356.090 221.905, 319.076 264.866, 303.989 310.946 C 296.839 332.784, 294.021 351.912, 294.008 378.699 C 293.990 417.318, 301.089 444.913, 317.178 468.762 C 324.853 480.139, 336.417 493.371, 346.374 502.171 C 369.345 522.471, 406.797 542.126, 446 554.453 C 477.583 564.385, 526.601 580.673, 535.261 584.114 C 558.534 593.362, 578.169 605.003, 589.118 616.044 C 600.065 627.083, 605 639.810, 605 657 C 605 667.670, 603.214 676, 599.437 682.938 C 587.522 704.829, 564.008 718.468, 527.650 724.575 C 513.571 726.940, 482.106 726.127, 470 723.084 C 448.111 717.584, 427.934 708.835, 411.816 697.853 C 402.932 691.801, 385.750 675.863, 379.259 667.654 L 376.218 663.808 324.125 721.016 L 272.032 778.224 277.091 782.772 C 329.233 829.652, 390.839 854.972, 467.395 860.987 C 518.849 865.030, 579.155 856.499, 621 839.258 C 687.486 811.864, 732.045 760.844, 746.392 695.683 C 750.538 676.854, 751.479 666.917, 751.429 642.500 C 751.331 594.779, 742.704 565.764, 720.051 536.967 C 702.376 514.499, 685.401 500.901, 656 485.658 C 634.092 474.299, 622.495 469.960, 578 456.474 C 527.943 441.302, 510.108 435.123, 494.040 427.386 C 463.906 412.876, 452.063 401.164, 447.386 381.250 C 445.212 371.990, 445.921 355.703, 448.855 347.539 C 458.343 321.134, 489.228 303.085, 531.974 298.962 C 563.362 295.935, 603.737 305.697, 628.811 322.377 C 632.490 324.825, 638.844 330.217, 642.932 334.360 C 647.020 338.503, 650.730 341.667, 651.177 341.391 C 651.624 341.114, 673.215 317.626, 699.156 289.194 C 725.098 260.762, 747.389 236.336, 748.692 234.913 L 751.061 232.326 741.281 224.484 C 721.182 208.368, 698.302 194.894, 675.761 185.898 C 653.894 177.171, 619.571 168.913, 591 165.506 C 578.064 163.963, 535.101 162.751, 524.500 163.630 M 0.442 512 C 0.442 528.225, 0.580 534.862, 0.748 526.750 C 0.916 518.637, 0.916 505.362, 0.748 497.250 C 0.580 489.137, 0.442 495.775, 0.442 512" stroke="none" fill="#0454a4" fill-rule="evenodd"/></svg>