<?xml version="1.0" standalone="no"?>
<!DOCTYPE svg PUBLIC "-//W3C//DTD SVG 20010904//EN"
"http://www.w3.org/TR/2001/REC-SVG-20010904/DTD/svg10.dtd">
<svg version="1.0" xmlns="http://www.w3.org/2000/svg"
width="1024.000000pt" height="1024.000000pt" viewBox="0 0 1024.000000 1024.000000"
preserveAspectRatio="xMidYMid meet">
 
<circle cx="512" cy="512" r="512" fill="white" />
 
 
<g transform="translate(0.000000,1024.000000) scale(0.100000,-0.100000)"
fill="#0454a4" stroke="none">
<path d="M4820 10229 c-80 -5 -235 -20 -345 -34 -1414 -178 -2687 -939 -3521
-2105 -337 -471 -600 -1018 -754 -1565 -307 -1092 -252 -2228 157 -3275 359
-917 990 -1725 1796 -2299 705 -502 1547 -824 2392 -915 460 -50 982 -37 1410
35 1519 255 2829 1164 3601 2499 641 1109 838 2436 549 3702 -148 648 -431
1276 -819 1818 -581 813 -1374 1431 -2306 1797 -672 264 -1431 384 -2160 342z
m1139 -1648 c285 -39 589 -115 811 -203 229 -91 515 -265 704 -430 l38 -34
-497 -544 c-274 -300 -499 -547 -501 -549 -2 -2 -43 34 -91 80 -102 98 -201
163 -334 218 -422 177 -894 177 -1251 1 -107 -53 -154 -87 -226 -165 -114
-121 -158 -247 -149 -420 12 -204 83 -327 256 -443 195 -131 397 -213 871
-357 636 -192 797 -251 1030 -380 140 -77 238 -143 337 -227 221 -187 404
-449 477 -685 99 -318 114 -749 40 -1121 -162 -812 -784 -1403 -1695 -1611
-813 -185 -1728 -84 -2384 263 -187 99 -468 295 -624 435 l-54 48 518 569
c285 313 521 570 525 572 3 1 29 -26 57 -60 199 -245 494 -425 842 -515 125
-33 150 -36 321 -40 156 -4 204 -2 305 15 299 52 475 135 623 297 100 109 142
220 142 375 -1 275 -126 443 -465 622 -175 92 -438 186 -1100 393 -391 122
-757 309 -992 506 -151 127 -309 319 -387 469 -105 201 -148 373 -166 653 -22
361 40 726 171 1006 191 408 545 768 963 978 295 148 626 245 981 287 72 9
144 18 160 20 17 2 156 3 310 1 212 -3 318 -9 434 -24z"/>
</g>
</svg>